@startuml
' straight line (no diagonals)
skinparam linetype ortho
entity "Entity01" as e01 {
    ' * = NOT NULL
    *e1_id : number <<generated>>
    --
    *name : text
    description : text
}
entity "Entity02" as e02 {
    *e2_id : number <<generated>>
    --
    *e1_id : number <<FK>>
    other_details : text
}

e01 ||..|{ e02
e01 }o..|| e02
e01 |o..o| e02
e01 "1"--"M"e02
@enduml